<svg width="102" height="15" viewBox="0 0 102 15" fill="none" xmlns="http://www.w3.org/2000/svg">
<path d="M12.621 5.15821L8.7111 4.58998L6.96327 1.04658C6.91553 0.94956 6.837 0.871023 6.73998 0.823285C6.49667 0.703169 6.201 0.803265 6.07935 1.04658L4.33152 4.58998L0.421611 5.15821C0.313816 5.17361 0.215259 5.22443 0.139802 5.30143C0.048579 5.39519 -0.00168917 5.52133 4.3343e-05 5.65214C0.00177586 5.78294 0.0553673 5.90771 0.149042 5.99902L2.97791 8.75705L2.30958 12.6516C2.2939 12.7421 2.30393 12.8353 2.33851 12.9205C2.3731 13.0057 2.43086 13.0795 2.50525 13.1335C2.57964 13.1875 2.66768 13.2197 2.75939 13.2262C2.8511 13.2327 2.9428 13.2134 3.02411 13.1705L6.52131 11.3318L10.0185 13.1705C10.114 13.2213 10.2249 13.2383 10.3311 13.2198C10.5991 13.1736 10.7792 12.9195 10.733 12.6516L10.0647 8.75705L12.8936 5.99902C12.9706 5.92356 13.0214 5.82501 13.0368 5.71721C13.0784 5.44772 12.8905 5.19825 12.621 5.15821Z" fill="#FFB742"/>
<path d="M34.621 5.38575L30.7111 4.81751L28.9633 1.27411C28.9155 1.1771 28.837 1.09856 28.74 1.05082C28.4967 0.930708 28.201 1.0308 28.0793 1.27411L26.3315 4.81751L22.4216 5.38575C22.3138 5.40115 22.2153 5.45197 22.1398 5.52897C22.0486 5.62273 21.9983 5.74887 22 5.87967C22.0018 6.01048 22.0554 6.13525 22.149 6.22656L24.9779 8.98459L24.3096 12.8791C24.2939 12.9697 24.3039 13.0629 24.3385 13.148C24.3731 13.2332 24.4309 13.307 24.5053 13.3611C24.5796 13.4151 24.6677 13.4472 24.7594 13.4537C24.8511 13.4603 24.9428 13.441 25.0241 13.3981L28.5213 11.5594L32.0185 13.3981C32.114 13.4489 32.2249 13.4658 32.3311 13.4473C32.5991 13.4011 32.7792 13.147 32.733 12.8791L32.0647 8.98459L34.8936 6.22656C34.9706 6.1511 35.0214 6.05254 35.0368 5.94475C35.0784 5.67526 34.8905 5.42579 34.621 5.38575Z" fill="#FFB742"/>
<path d="M56.621 5.61329L52.7111 5.04505L50.9633 1.50165C50.9155 1.40464 50.837 1.3261 50.74 1.27836C50.4967 1.15825 50.201 1.25834 50.0793 1.50165L48.3315 5.04505L44.4216 5.61329C44.3138 5.62869 44.2153 5.67951 44.1398 5.7565C44.0486 5.85027 43.9983 5.97641 44 6.10721C44.0018 6.23802 44.0554 6.36278 44.149 6.4541L46.9779 9.21213L46.3096 13.1066C46.2939 13.1972 46.3039 13.2904 46.3385 13.3756C46.3731 13.4608 46.4309 13.5346 46.5053 13.5886C46.5796 13.6426 46.6677 13.6747 46.7594 13.6813C46.8511 13.6878 46.9428 13.6685 47.0241 13.6256L50.5213 11.7869L54.0185 13.6256C54.114 13.6764 54.2249 13.6933 54.3311 13.6749C54.5991 13.6287 54.7792 13.3746 54.733 13.1066L54.0647 9.21213L56.8936 6.4541C56.9706 6.37864 57.0214 6.28008 57.0368 6.17229C57.0784 5.9028 56.8905 5.65333 56.621 5.61329Z" fill="#FFB742"/>
<path d="M78.621 5.84083L74.7111 5.27259L72.9633 1.72919C72.9155 1.63218 72.837 1.55364 72.74 1.5059C72.4967 1.38579 72.201 1.48588 72.0793 1.72919L70.3315 5.27259L66.4216 5.84083C66.3138 5.85623 66.2153 5.90705 66.1398 5.98404C66.0486 6.07781 65.9983 6.20395 66 6.33475C66.0018 6.46556 66.0554 6.59032 66.149 6.68164L68.9779 9.43967L68.3096 13.3342C68.2939 13.4248 68.3039 13.5179 68.3385 13.6031C68.3731 13.6883 68.4309 13.7621 68.5053 13.8161C68.5796 13.8702 68.6677 13.9023 68.7594 13.9088C68.8511 13.9153 68.9428 13.8961 69.0241 13.8531L72.5213 12.0144L76.0185 13.8531C76.114 13.9039 76.2249 13.9209 76.3311 13.9024C76.5991 13.8562 76.7792 13.6021 76.733 13.3342L76.0647 9.43967L78.8936 6.68164C78.9706 6.60618 79.0214 6.50762 79.0368 6.39983C79.0784 6.13034 78.8905 5.88087 78.621 5.84083Z" fill="#FFB742"/>
<path d="M100.621 6.06837L96.7111 5.50013L94.9633 1.95673C94.9155 1.85972 94.837 1.78118 94.74 1.73344C94.4967 1.61333 94.201 1.71342 94.0793 1.95673L92.3315 5.50013L88.4216 6.06837C88.3138 6.08377 88.2153 6.13459 88.1398 6.21158C88.0486 6.30534 87.9983 6.43149 88 6.56229C88.0018 6.6931 88.0554 6.81786 88.149 6.90918L90.9779 9.6672L90.3096 13.5617C90.2939 13.6523 90.3039 13.7455 90.3385 13.8307C90.3731 13.9159 90.4309 13.9896 90.5053 14.0437C90.5796 14.0977 90.6677 14.1298 90.7594 14.1363C90.8511 14.1429 90.9428 14.1236 91.0241 14.0807L94.5213 12.242L98.0185 14.0807C98.114 14.1315 98.2249 14.1484 98.3311 14.1299C98.5991 14.0837 98.7792 13.8297 98.733 13.5617L98.0647 9.6672L100.894 6.90918C100.971 6.83372 101.021 6.73516 101.037 6.62737C101.078 6.35788 100.89 6.10841 100.621 6.06837Z" fill="#FFB742"/>
</svg>
